<svg xmlns="http://www.w3.org/2000/svg" version="1.1" xmlns:xlink="http://www.w3.org/1999/xlink" xmlns:svgjs="http://svgjs.dev/svgjs" width="2000" height="1500" viewBox="0 0 2000 1500"><rect width="2000" height="1500" fill="#651e1a"></rect><g transform="matrix(0.75,0,0,0.75,249.090909090909,282.7536437246963)"><svg viewBox="0 0 396 247" data-background-color="#651e1a" preserveAspectRatio="xMidYMid meet" height="1247" width="2000" xmlns="http://www.w3.org/2000/svg" xmlns:xlink="http://www.w3.org/1999/xlink"><g id="tight-bounds" transform="matrix(1,0,0,1,0.2400000000000091,-0.09999999999999432)"><svg viewBox="0 0 395.52 247.2" height="247.2" width="395.52"><g><svg></svg></g><g><svg viewBox="0 0 395.52 247.2" height="247.2" width="395.52"><g transform="matrix(1,0,0,1,136.85151593406593,47.215199999999996)"><svg viewBox="0 0 121.81696813186814 152.7696" height="152.7696" width="121.81696813186814"><g><svg viewBox="0 0 121.81696813186814 152.7696" height="152.7696" width="121.81696813186814"><g><svg viewBox="0 0 121.81696813186814 152.7696" height="152.7696" width="121.81696813186814"><g><svg viewBox="0 0 121.81696813186814 152.7696" height="152.7696" width="121.81696813186814"><g id="textblocktransform"><svg viewBox="0 0 121.81696813186814 152.7696" height="152.7696" width="121.81696813186814" id="textblock"><g><svg viewBox="0 0 121.81696813186814 152.7696" height="152.7696" width="121.81696813186814"><g transform="matrix(1,0,0,1,0,0)"><svg width="121.81696813186814" viewBox="1.98 -35.55 28.34 35.55" height="152.7696" data-palette-color="#f6e9d7"><path d="M14.75 0L1.98 0 1.98-3.08 5.96-3.76 5.96-31.76 1.98-32.45 1.98-35.55 5.96-35.55 18.31-35.55Q22.12-35.55 24.8-34.22 27.49-32.89 28.91-30.49 30.32-28.1 30.32-24.9L30.32-24.9Q30.32-21.68 28.91-19.29 27.49-16.89 24.8-15.58 22.12-14.26 18.31-14.26L18.31-14.26 10.77-14.26 10.77-3.76 14.75-3.08 14.75 0ZM10.77-31.76L10.77-18.02 18.31-18.02Q21.92-18.02 23.72-19.96 25.51-21.9 25.51-24.85L25.51-24.85Q25.51-27.81 23.72-29.79 21.92-31.76 18.31-31.76L18.31-31.76 10.77-31.76Z" opacity="1" transform="matrix(1,0,0,1,0,0)" fill="#f6e9d7" class="wordmark-text-0" data-fill-palette-color="primary" id="text-0"></path></svg></g></svg></g></svg></g></svg></g></svg></g></svg></g></svg></g><g><path d="M0 123.6c0-68.262 55.338-123.6 123.6-123.6 30.402 0 58.24 10.976 79.768 29.183l-11.147 0c-19.26-14.022-42.974-22.294-68.621-22.295-64.458 0-116.712 52.254-116.712 116.712 0 64.458 52.254 116.712 116.712 116.712 25.647 0 49.361-8.272 68.621-22.295l11.147 0c-21.528 18.206-49.366 29.183-79.768 29.183-68.262 0-123.6-55.338-123.6-123.6z" fill="#f6e9d7" stroke="transparent" data-fill-palette-color="tertiary"></path></g></svg></g><defs></defs></svg><rect width="395.52" height="247.2" fill="none" stroke="none" visibility="hidden"></rect></g></svg></g></svg>


